<?xml version="1.0" standalone="no"?>
<!DOCTYPE svg PUBLIC "-//W3C//DTD SVG 20010904//EN"
 "http://www.w3.org/TR/2001/REC-SVG-20010904/DTD/svg10.dtd">
<svg version="1.0" xmlns="http://www.w3.org/2000/svg"
 width="875.000000pt" height="875.000000pt" viewBox="0 0 875.000000 875.000000"
 preserveAspectRatio="xMidYMid meet">
<metadata>
Created by potrace 1.11, written by Peter Selinger 2001-2013
</metadata>
<g transform="translate(0.000000,875.000000) scale(0.100000,-0.100000)"
fill="#000000" stroke="none">
<path d="M4670 8735 c-68 -21 -114 -67 -175 -170 l-55 -93 -147 -1 c-522 -5
-1040 -116 -1546 -333 -778 -332 -1440 -910 -1890 -1651 -76 -124 -238 -447
-287 -572 -399 -1007 -399 -2073 0 -3080 49 -125 211 -448 287 -572 370 -610
875 -1102 1493 -1455 392 -224 870 -396 1300 -468 106 -18 100 -13 100 -86 0
-115 67 -208 174 -239 62 -19 80 -19 142 0 71 21 117 65 179 170 l55 93 147 1
c522 5 1040 116 1546 333 778 332 1440 910 1890 1651 76 124 238 447 287 572
399 1007 399 2073 0 3080 -49 125 -211 448 -287 572 -370 610 -875 1102 -1493
1455 -392 224 -870 396 -1300 468 -106 18 -100 13 -100 86 0 115 -67 208 -174
239 -60 18 -87 18 -146 0z m-353 -472 c-3 -5 -134 -233 -292 -508 -158 -275
-406 -705 -550 -955 -144 -250 -358 -621 -475 -825 -117 -203 -357 -620 -533
-925 -176 -305 -326 -572 -333 -594 -8 -21 -14 -57 -14 -80 0 -85 -81 60 1035
-1871 219 -379 410 -710 423 -734 14 -24 41 -59 60 -78 155 -156 424 -43 424
177 0 71 -9 90 -161 353 -642 1112 -866 1501 -1040 1801 l-201 349 402 698
403 699 905 0 905 -1 400 -695 c220 -382 399 -699 397 -705 -1 -5 -250 -441
-554 -967 -303 -526 -654 -1137 -781 -1357 -127 -220 -374 -650 -549 -955
-176 -305 -325 -560 -331 -567 -15 -15 -214 18 -431 72 -1117 275 -2073 1055
-2571 2098 -199 418 -322 863 -366 1327 -15 161 -15 549 0 710 44 464 167 909
366 1327 300 628 784 1184 1365 1568 523 345 1141 566 1745 625 61 5 124 12
140 14 61 7 216 6 212 -1z m718 -49 c506 -83 1039 -295 1485 -589 581 -384
1065 -940 1365 -1568 199 -418 322 -863 366 -1327 15 -161 15 -549 0 -710 -44
-464 -167 -909 -366 -1327 -85 -178 -147 -287 -271 -473 -684 -1033 -1820
-1678 -3058 -1737 -83 -4 -137 -3 -134 3 3 5 126 218 273 474 271 471 682
1185 1195 2075 762 1324 721 1250 727 1313 3 31 1 74 -5 94 -5 20 -106 202
-223 405 -117 202 -369 640 -562 973 -192 333 -424 735 -516 894 -91 158 -181
305 -198 326 -43 50 -114 83 -183 84 -140 2 -252 -109 -252 -248 0 -76 -2 -72
266 -536 l205 -355 -776 -3 c-427 -1 -778 0 -780 2 -2 2 70 131 160 287 90
156 372 646 627 1089 254 443 473 822 486 843 19 29 29 36 47 33 12 -3 67 -12
122 -22z"/>
</g>
</svg>
